<?xml version="1.0" encoding="utf-8"?>
<!-- Generator: Adobe Illustrator 24.0.3, SVG Export Plug-In . SVG Version: 6.00 Build 0)  -->
<svg version="1.1" id="Layer_1" xmlns="http://www.w3.org/2000/svg" xmlns:xlink="http://www.w3.org/1999/xlink" x="0px" y="0px"
	 viewBox="0 0 562.8 144.5" style="enable-background:new 0 0 562.8 144.5;" xml:space="preserve">
<style type="text/css">
	.st0{fill:#EE2A7B;}
	.st1{fill:#29A3DC;}
	.st2{fill-rule:evenodd;clip-rule:evenodd;fill:#27AAE1;}
	.st3{fill:#2DA9E1;}
	.st4{fill-rule:evenodd;clip-rule:evenodd;fill:#2AA7DF;}
	.st5{fill:#27AAE1;}
	.st6{fill-rule:evenodd;clip-rule:evenodd;fill:#28A8E0;}
	.st7{fill:#FFFFFF;}
</style>
<g>
	<g>
		<path class="st2" d="M61.5,144.5c35.5,0,61.3-30.6,61.3-62.6c0-55-57.7-59.6-65.3-82C52.2,21.8,0,30.6,0,82
			C0,111.8,25.4,144.5,61.5,144.5z M87.8,103.4H34.6c-9.9,0-17.9-7.6-17.9-17c0-8.6,6.6-15.6,15.2-16.8c-0.1-0.7-0.2-1.3-0.2-2
			c0-5.8,4.9-10.5,11-10.5c2.7,0,5.2,0.9,7.2,2.5c3.5-6.9,11-11.7,19.6-11.7c12.1,0,21.9,9.4,21.9,20.9v0.8
			c8.1,1.6,14.3,8.4,14.3,16.7C105.6,95.8,97.7,103.4,87.8,103.4z"/>
	</g>
	<path d="M137.5,104.2c0-10.9,8.5-18.2,18.5-18.2c8.4,0,12.8,4.7,14.5,9.6l-7.8,2.5c-0.9-3.1-3.6-5-7-5c-5.5,0-9.8,4.7-9.8,10.5
		c0,4.2,3.1,7.6,7.9,7.6c2.5,0,5.4-1.5,6.9-3.6l6.2,4.1c-3.7,5.1-9.4,6.6-13.6,6.6C144.6,118.5,137.5,113,137.5,104.2z"/>
	<path d="M168.5,117.9l6.9-31.3h8.1l-5.3,24.3h12.5l-1.5,7H168.5z"/>
	<path d="M193.6,104.2c0-10.1,7.9-18.2,18.5-18.2c8.9,0,15.8,5.6,15.8,14.1c0,10.1-7.9,18.3-18.5,18.3
		C200.5,118.5,193.6,112.8,193.6,104.2z M219.5,100.8c0-4.6-3.3-7.6-7.9-7.6c-5.5,0-9.6,4.7-9.6,10.5c0,4.6,3.3,7.6,7.9,7.6
		C215.4,111.3,219.5,106.6,219.5,100.8z"/>
	<path d="M230.7,107.3c0-0.5,0.1-1.6,0.2-2.1l4.1-18.6h8.2l-4.1,18.5c0,0.2-0.1,0.8-0.1,1.3c0,2.6,2,5.1,6,5.1
		c4.3,0,6.5-2.7,7.3-6.4l4.1-18.5h8.2l-4.1,18.6c-1.7,7.6-5.8,13.3-15.5,13.3C235.4,118.5,230.7,113.9,230.7,107.3z"/>
	<path d="M263.3,117.9l6.9-31.3h12.9c7,0,13.9,5.3,13.9,13.5c0,8.1-5.3,17.8-20.6,17.8H263.3z M273,110.9h5
		c6.7,0,10.8-4.7,10.8-10.2c0-3.9-2.9-7-7-7h-4.9L273,110.9z"/>
	<path d="M309.5,117.9l6.9-31.3h15.4c5.1,0,8.9,4,8.9,9c0,4.6-3.1,11.8-13.4,11.8h-7.5l-2.3,10.5H309.5z M327.8,100.3
		c2.6,0,4.6-1.6,4.6-3.9c0-1.7-1.3-2.8-3.2-2.8h-6.2l-1.5,6.7H327.8L327.8,100.3z"/>
	<path d="M339.5,117.9l6.9-31.3h8.1l-5.3,24.3h12.5l-1.5,7H339.5z"/>
	<path d="M386,117.9l-0.5-4.5h-12.4l-2.5,4.5H361l18.7-31.3h10.2l4.9,31.3H386z M383.4,94.6l-6.6,11.8h8L383.4,94.6z"/>
	<path d="M400.7,117.9l5.3-24.3h-8.8l1.6-7h25.6l-1.5,7h-8.7l-5.4,24.3H400.7z"/>
	<path d="M421.3,117.9l6.9-31.3h23l-1.5,7h-14.9l-1,4.9h14.5l-1.5,7h-14.6l-2.7,12.3H421.3z"/>
	<path d="M450.1,104.2c0-10.1,7.9-18.2,18.5-18.2c8.9,0,15.8,5.6,15.8,14.1c0,10.1-7.9,18.3-18.5,18.3
		C457,118.5,450.1,112.8,450.1,104.2z M476,100.8c0-4.6-3.3-7.6-7.9-7.6c-5.5,0-9.6,4.7-9.6,10.5c0,4.6,3.3,7.6,7.9,7.6
		C471.9,111.3,476,106.6,476,100.8z"/>
	<path d="M502.4,117.9l-2.9-10.5H495l-2.3,10.5h-8.1l6.9-31.3h14.3c5.4,0,10.1,3.5,10.1,9.2c0,5.6-3.8,9.9-8.4,11.1l3.8,11.1H502.4z
		 M503,100.3c2.8,0,4.6-1.5,4.6-3.8c0-1.7-1.5-3-3.3-3h-6.2l-1.5,6.7H503L503,100.3z"/>
	<path d="M543.1,117.9l4.6-20.7l-12.4,20.7h-3.6l-3.4-20.7l-4.6,20.7h-8.1l6.9-31.3h10.9l2.7,17.3l10.4-17.3h11.5l-6.9,31.3H543.1z"
		/>
</g>
<g>
	<path d="M172.4,76.3l-0.7-5.8h-15.9l-3.2,5.8h-12.3l24-40.2h13.1l6.3,40.2H172.4z M169.1,46.4l-8.4,15.1h10.2L169.1,46.4z"/>
	<path d="M185.9,58.8c0-14,10.8-23.3,23.8-23.3c10.8,0,16.4,6.1,18.6,12.3l-10,3.3c-1.1-4-4.6-6.4-9-6.4c-7,0-12.5,6.1-12.5,13.5
		c0,5.4,3.9,9.8,10.2,9.8c3.3,0,6.9-1.9,8.8-4.6l8,5.3c-4.8,6.6-12,8.5-17.4,8.5C194.9,77,185.9,70,185.9,58.8z"/>
	<path d="M228.1,58.8c0-13,10.2-23.3,23.8-23.3c11.4,0,20.3,7.2,20.3,18.1c0,7.5-3.4,14.2-9,18.5l1.9,3.1l-8.3,3.9l-1.7-2.9
		c-2.1,0.5-4.3,0.9-6.6,0.9C236.9,77,228.1,69.8,228.1,58.8z M250.1,67.9l-2.8-4.7l8.3-3.9l2.6,4.3c2-2.4,3.3-5.7,3.3-9.3
		c0-5.8-4.2-9.8-10.2-9.8c-7,0-12.3,6.1-12.3,13.5c0,5.8,4.2,9.8,10.2,9.8H250.1z"/>
	<path d="M275.7,62.7c0-0.7,0.2-2,0.3-2.7l5.3-23.9h10.5l-5.2,23.7c-0.1,0.3-0.2,1-0.2,1.7c0.1,3.3,2.6,6.5,7.7,6.5
		c5.5,0,8.4-3.5,9.4-8.2l5.2-23.7h10.5L314,60c-2.2,9.8-7.5,17-19.9,17C281.8,77,275.7,71.1,275.7,62.7z"/>
	<path d="M317.6,76.3l8.9-40.2h10.4L328,76.3H317.6z"/>
	<path d="M363,76.3l-0.7-5.8h-15.9l-3.2,5.8h-12.3l24-40.2H368l6.3,40.2H363z M359.7,46.4l-8.4,15.1h10.2L359.7,46.4z"/>
</g>
</svg>
